<svg width="397" height="500" viewBox="0 0 397 500" fill="none" xmlns="http://www.w3.org/2000/svg">
<g clip-path="url(#clip0)">
<path opacity="0.4" d="M21.36 477.8L0 465.58L31.96 447.29L53.31 459.5L21.36 477.8Z" fill="#D6D8E5"/>
<path d="M21.7999 453.17L4.10986 442.96L21.7999 432.75L39.4799 442.96L21.7999 453.17Z" fill="#D6D8E5"/>
<path d="M21.7999 473.59L4.10986 463.38V442.96L21.7999 453.17V473.59Z" fill="#B1B6C4"/>
<path d="M39.4898 463.38L21.7998 473.59V453.17L39.4898 442.96V463.38Z" fill="#C4C7D6"/>
<path d="M45.5699 457C47.0996 457.426 48.7358 457.228 50.1199 456.45C51.2199 456.45 57.1799 453.94 57.9899 456.08C58.6999 457.95 56.1199 459.69 54.7399 460.02C51.7399 460.75 49.4999 462.25 48.2899 462.51C47.8291 462.675 47.3348 462.725 46.8502 462.655C46.3657 462.586 45.9055 462.398 45.5099 462.11C44.6499 461.21 44.7299 458.07 45.5699 457Z" fill="#0D102D"/>
<path d="M48.2901 461.94C49.5001 461.68 51.7301 460.18 54.7401 459.45C55.8901 459.17 57.8801 457.91 58.0801 456.4C58.3501 458.13 56.0201 459.66 54.7401 459.97C51.7401 460.7 49.5001 462.2 48.2901 462.46C47.8293 462.625 47.335 462.675 46.8504 462.605C46.3658 462.536 45.9057 462.348 45.5101 462.06C45.3195 461.858 45.185 461.61 45.1201 461.34C45.565 461.68 46.0835 461.912 46.6339 462.016C47.1844 462.12 47.7516 462.094 48.2901 461.94V461.94Z" fill="#0D102D"/>
<path d="M34.83 451.23C36.3597 451.656 37.9959 451.458 39.38 450.68C40.48 450.68 46.38 448.17 47.24 450.31C47.95 452.18 45.37 453.92 44 454.25C41 454.98 38.76 456.48 37.55 456.74C37.0892 456.905 36.5949 456.955 36.1103 456.886C35.6258 456.816 35.1656 456.629 34.77 456.34C33.91 455.49 34 452.35 34.83 451.23Z" fill="#0D102D"/>
<path d="M37.5499 456.22C38.7599 455.96 40.9899 454.46 43.9999 453.73C45.1499 453.45 47.1399 452.19 47.3399 450.68C47.6099 452.41 45.2799 453.94 43.9999 454.25C40.9999 454.98 38.7599 456.48 37.5499 456.74C37.089 456.905 36.5948 456.955 36.1102 456.885C35.6256 456.816 35.1655 456.628 34.7699 456.34C34.5815 456.14 34.4472 455.896 34.3799 455.63C34.8264 455.967 35.3452 456.196 35.8953 456.299C36.4455 456.401 37.0119 456.374 37.5499 456.22V456.22Z" fill="#9C73FF"/>
<path d="M18.1 443.82C22.75 445.82 27.1 446.18 30.71 444.26L34.41 442.12C34.63 446.9 34.84 451.49 34.84 451.49C34.84 451.49 37.68 453.64 39.84 451.72C39.84 451.72 40.3 445.02 40.77 438.42L44.65 436.18C44.5565 436.533 44.5061 436.895 44.5 437.26C44.5 438.51 45.4 457.14 45.4 457.14C45.4 457.14 48.26 458.84 50.47 456.93C50.47 456.93 51.96 435.34 52.3 431.93C52.68 428.05 48.38 426.14 45.65 427.13L41.49 428.68L41.69 426.28C42.08 422.4 37.77 420.49 35.05 421.48C32.57 422.39 15.81 428.67 15.81 428.67C15.9143 430.283 16.1113 431.889 16.4 433.48L9.78001 432.92C9.43001 439.11 13.46 441.78 18.1 443.82ZM29.66 433.09L34.09 430.54C34.0162 430.852 33.9693 431.17 33.95 431.49L29.66 433.09Z" fill="#0D102D"/>
<path d="M6.2002 414C6.2002 414 6.7402 422.23 7.8202 423.42C8.9002 424.61 12.5602 425.42 12.5602 425.42L15.3702 430C15.3702 430 12.8002 415.32 12.2402 415C11.6802 414.68 6.2002 414 6.2002 414Z" fill="#FFCEA9"/>
<path d="M11.61 404.85C10.9285 404.532 10.1545 404.473 9.43283 404.685C8.71118 404.896 8.09152 405.364 7.68998 406C6.68998 407.71 5.57998 413.6 5.47998 414.6C5.89562 415.161 6.44622 415.609 7.08076 415.901C7.71531 416.193 8.41327 416.32 9.10998 416.27L11.61 404.85Z" fill="#EDEDED"/>
<path d="M12.6 405C14.02 405.07 15.08 405.43 15.26 405C15.4125 404.267 15.5194 403.526 15.58 402.78C15.42 402.36 15.28 401.92 15.28 401.92C13.49 400.82 12.93 398.92 12.69 396.64C12.29 392.79 14.37 389.43 18.21 389.03C21.83 388.65 24.49 391.19 25.21 394.68C25.59 396.4 26.35 399.68 25.32 402.49C24.75 404.07 24.01 405.33 23.32 405.57C22.6036 405.555 21.8889 405.495 21.18 405.39V405.39C21.18 405.39 20.99 406.46 20.86 407.14C20.73 407.82 20.77 408.19 22.14 409.03C23.51 409.87 20.08 411.6 17.84 411.43C15.6 411.26 13.08 409.91 12.39 408.43C11.56 406.81 11.62 404.91 12.6 405Z" fill="#FFCEA9"/>
<path d="M48.6601 430.15C48.6593 430.353 48.6053 430.552 48.5035 430.727C48.4017 430.903 48.2557 431.049 48.0801 431.15L37.2301 437.41C37.0541 437.513 36.8539 437.567 36.6501 437.567C36.4462 437.567 36.2461 437.513 36.0701 437.41L20.8701 428.63C20.693 428.53 20.5459 428.385 20.4439 428.209C20.3419 428.033 20.2888 427.833 20.2901 427.63V427.55L48.6601 430.15Z" fill="#E5E5E5"/>
<path d="M48.0799 431.15L37.2299 437.41C37.0552 437.516 36.8543 437.572 36.6499 437.57V430.15H48.6499C48.6501 430.352 48.5977 430.55 48.4977 430.726C48.3977 430.901 48.2537 431.047 48.0799 431.15V431.15Z" fill="#E5E5E5"/>
<path d="M37.06 436.84C36.9376 436.913 36.7976 436.952 36.655 436.952C36.5124 436.952 36.3725 436.913 36.25 436.84L20.44 427.72C20.24 427.6 20.24 427.41 20.44 427.3L32.08 420.57L48.66 430.15L37.06 436.84Z" fill="#F4F4F4"/>
<path d="M26.9302 430.15L27.0102 430.19L32.0802 433.12L34.8602 431.51L34.9402 431.47L29.7902 428.5L26.9302 430.15Z" fill="#BFBFBF"/>
<path d="M27.0103 430.19L32.0803 433.12L34.8603 431.51L29.7903 428.59L27.0103 430.19Z" fill="#E5E5E5"/>
<path d="M44.3602 430.62L45.0902 431.04C45.1255 431.059 45.165 431.069 45.2052 431.069C45.2454 431.069 45.2849 431.059 45.3202 431.04L46.0202 430.64C46.0902 430.64 46.1002 430.54 46.0202 430.51L45.2902 430.08C45.2542 430.063 45.2149 430.054 45.1752 430.054C45.1354 430.054 45.0962 430.063 45.0602 430.08L44.3602 430.49C44.3102 430.53 44.3002 430.59 44.3602 430.62Z" fill="#3A2C6D"/>
<path d="M43.3299 430L44.0599 430.42C44.0952 430.439 44.1347 430.449 44.1749 430.449C44.2151 430.449 44.2546 430.439 44.2899 430.42L44.9899 430.02C45.0599 430.02 45.0599 429.92 44.9899 429.89L44.2599 429.47C44.2246 429.451 44.1851 429.441 44.1449 429.441C44.1047 429.441 44.0652 429.451 44.0299 429.47L43.3299 429.87C43.2799 429.93 43.2699 430 43.3299 430Z" fill="#3A2C6D"/>
<path d="M42.2899 429.43L43.0199 429.85C43.0576 429.867 43.0985 429.876 43.1399 429.876C43.1813 429.876 43.2222 429.867 43.2599 429.85L43.9499 429.45C44.0199 429.45 44.0299 429.35 43.9499 429.31L43.2199 428.89C43.1846 428.871 43.1451 428.861 43.1049 428.861C43.0647 428.861 43.0251 428.871 42.9899 428.89L42.2899 429.29C42.2399 429.33 42.2299 429.39 42.2899 429.43Z" fill="#3A2C6D"/>
<path d="M41.2601 428.83L41.9901 429.25C42.0261 429.267 42.0653 429.276 42.1051 429.276C42.1448 429.276 42.1841 429.267 42.2201 429.25L42.9201 428.85C42.9901 428.85 43.0001 428.75 42.9201 428.71L42.1901 428.29C42.1524 428.273 42.1115 428.264 42.0701 428.264C42.0287 428.264 41.9878 428.273 41.9501 428.29L41.2601 428.69C41.2101 428.73 41.2001 428.79 41.2601 428.83Z" fill="#3A2C6D"/>
<path d="M40.22 428.23L40.96 428.65C40.9953 428.669 41.0349 428.679 41.075 428.679C41.1152 428.679 41.1548 428.669 41.19 428.65L41.88 428.25C41.95 428.25 41.96 428.15 41.88 428.12L41.15 427.69C41.1141 427.673 41.0748 427.664 41.035 427.664C40.9953 427.664 40.956 427.673 40.92 427.69L40.22 428.1C40.17 428.14 40.16 428.2 40.22 428.23Z" fill="#3A2C6D"/>
<path d="M39.1903 427.63L39.9203 428.06C39.9562 428.077 39.9955 428.086 40.0353 428.086C40.075 428.086 40.1143 428.077 40.1503 428.06L40.8503 427.65C40.9203 427.65 40.9303 427.55 40.8503 427.52L40.1203 427.1C40.0832 427.081 40.042 427.071 40.0003 427.071C39.9585 427.071 39.9173 427.081 39.8803 427.1L39.1903 427.5C39.1403 427.54 39.1303 427.6 39.1903 427.63Z" fill="#3A2C6D"/>
<path d="M38.1602 427L38.8902 427.42C38.9262 427.437 38.9655 427.446 39.0052 427.446C39.045 427.446 39.0843 427.437 39.1202 427.42L39.8202 427.02C39.8902 427.02 39.8902 426.92 39.8202 426.88L39.0902 426.46C39.0543 426.443 39.015 426.434 38.9752 426.434C38.9355 426.434 38.8962 426.443 38.8602 426.46L38.1602 426.86C38.1002 426.94 38.1002 427 38.1602 427Z" fill="#3A2C6D"/>
<path d="M37.1199 426.44L37.8499 426.86C37.8852 426.879 37.9248 426.889 37.9649 426.889C38.0051 426.889 38.0447 426.879 38.08 426.86L38.7799 426.46C38.8499 426.46 38.8599 426.36 38.7799 426.33L38.0499 425.9C38.014 425.883 37.9747 425.874 37.935 425.874C37.8952 425.874 37.8559 425.883 37.8199 425.9L37.1199 426.31C37.0699 426.35 37.0599 426.41 37.1199 426.44Z" fill="#3A2C6D"/>
<path d="M36.0903 425.84L36.8203 426.26C36.8555 426.279 36.8951 426.289 36.9353 426.289C36.9754 426.289 37.015 426.279 37.0503 426.26L37.7503 425.86C37.8203 425.86 37.8203 425.76 37.7503 425.73L37.0003 425.3C36.965 425.281 36.9254 425.271 36.8853 425.271C36.8451 425.271 36.8055 425.281 36.7703 425.3L36.0703 425.7C36.0003 425.75 36.0003 425.81 36.0903 425.84Z" fill="#3A2C6D"/>
<path d="M35.05 425.25L35.78 425.67C35.8176 425.687 35.8586 425.696 35.9 425.696C35.9414 425.696 35.9823 425.687 36.02 425.67L36.71 425.27C36.78 425.27 36.79 425.17 36.71 425.13L36 424.7C35.9647 424.681 35.9251 424.671 35.885 424.671C35.8448 424.671 35.8052 424.681 35.77 424.7L35.07 425.1C35 425.15 35 425.21 35.05 425.25Z" fill="#3A2C6D"/>
<path d="M34 424.65L34.73 425.07C34.766 425.087 34.8052 425.096 34.845 425.096C34.8848 425.096 34.924 425.087 34.96 425.07L35.66 424.67C35.73 424.67 35.74 424.57 35.66 424.53L35 424.1C34.9623 424.083 34.9214 424.074 34.88 424.074C34.8386 424.074 34.7977 424.083 34.76 424.1L34.07 424.5C34 424.55 34 424.61 34 424.65Z" fill="#3A2C6D"/>
<path d="M33 424.05L33.74 424.47C33.7753 424.489 33.8149 424.499 33.855 424.499C33.8952 424.499 33.9348 424.489 33.97 424.47L34.67 424.07C34.73 424.07 34.74 423.97 34.67 423.94L33.94 423.51C33.9041 423.493 33.8648 423.484 33.825 423.484C33.7853 423.484 33.746 423.493 33.71 423.51L33.01 423.92C32.93 424 32.93 424 33 424.05Z" fill="#3A2C6D"/>
<path d="M32.0002 423.45L32.7302 423.88C32.7662 423.897 32.8054 423.906 32.8452 423.906C32.8849 423.906 32.9242 423.897 32.9602 423.88L33.6602 423.47C33.7302 423.47 33.7402 423.37 33.6602 423.34L32.9302 422.92C32.8931 422.901 32.852 422.891 32.8102 422.891C32.7684 422.891 32.7272 422.901 32.6902 422.92L32.0002 423.32C31.9002 423.36 31.8902 423.42 32.0002 423.45Z" fill="#3A2C6D"/>
<path d="M30.4199 422.57L31.6499 423.28C31.6859 423.297 31.7251 423.306 31.7649 423.306C31.8046 423.306 31.8439 423.297 31.8799 423.28L32.5799 422.88C32.6499 422.88 32.6499 422.78 32.5799 422.74L31.3599 422C31.3239 421.983 31.2846 421.974 31.2449 421.974C31.2051 421.974 31.1659 421.983 31.1299 422L30.4299 422.41C30.4194 422.409 30.4088 422.411 30.3989 422.414C30.3889 422.418 30.3797 422.423 30.3719 422.43C30.364 422.437 30.3575 422.445 30.3529 422.455C30.3483 422.464 30.3455 422.475 30.3449 422.485C30.3442 422.496 30.3456 422.506 30.3491 422.516C30.3525 422.526 30.3578 422.535 30.3648 422.543C30.3717 422.551 30.3802 422.557 30.3896 422.562C30.3991 422.567 30.4094 422.569 30.4199 422.57V422.57Z" fill="#3A2C6D"/>
<path d="M41.82 430.31L42.56 430.73C42.5953 430.749 42.6348 430.759 42.675 430.759C42.7152 430.759 42.7548 430.749 42.79 430.73L43.49 430.33C43.55 430.33 43.56 430.23 43.49 430.2L42.76 429.78C42.7248 429.761 42.6852 429.751 42.645 429.751C42.6048 429.751 42.5653 429.761 42.53 429.78L41.83 430.18C41.77 430.22 41.77 430.28 41.82 430.31Z" fill="#3A2C6D"/>
<path d="M40.7899 429.71L41.5199 430.14C41.5558 430.157 41.5951 430.166 41.6349 430.166C41.6746 430.166 41.7139 430.157 41.7499 430.14L42.4499 429.73C42.5199 429.73 42.5299 429.63 42.4499 429.6L41.7199 429.18C41.6828 429.161 41.6416 429.151 41.5999 429.151C41.5581 429.151 41.5169 429.161 41.4799 429.18L40.7899 429.58C40.7399 429.62 40.7299 429.68 40.7899 429.71Z" fill="#3A2C6D"/>
<path d="M39.7498 429.12L40.4798 429.54C40.5175 429.557 40.5584 429.566 40.5998 429.566C40.6412 429.566 40.6821 429.557 40.7198 429.54L41.4098 429.14C41.4798 429.14 41.4898 429.04 41.4098 429L40.6798 428.58C40.6439 428.563 40.6046 428.554 40.5648 428.554C40.5251 428.554 40.4858 428.563 40.4498 428.58L39.7498 428.98C39.6998 429 39.6898 429.08 39.7498 429.12Z" fill="#3A2C6D"/>
<path d="M38.7203 428.52L39.4503 428.94C39.4863 428.957 39.5255 428.966 39.5653 428.966C39.605 428.966 39.6443 428.957 39.6803 428.94L40.3803 428.54C40.4503 428.54 40.4503 428.44 40.3803 428.4L39.6503 427.98C39.6143 427.963 39.5751 427.954 39.5353 427.954C39.4955 427.954 39.4563 427.963 39.4203 427.98L38.7203 428.38C38.6603 428.42 38.6603 428.48 38.7203 428.52Z" fill="#3A2C6D"/>
<path d="M37.6903 427.92L38.4203 428.35C38.4562 428.367 38.4955 428.376 38.5353 428.376C38.575 428.376 38.6143 428.367 38.6503 428.35L39.3503 427.94C39.4203 427.94 39.4303 427.84 39.3503 427.81L38.6203 427.39C38.5832 427.371 38.542 427.361 38.5003 427.361C38.4585 427.361 38.4173 427.371 38.3803 427.39L37.6903 427.79C37.6403 427.83 37.6303 427.89 37.6903 427.92Z" fill="#3A2C6D"/>
<path d="M36.6502 427.33L37.3802 427.75C37.4179 427.767 37.4588 427.776 37.5002 427.776C37.5416 427.776 37.5825 427.767 37.6202 427.75L38.3102 427.35C38.3802 427.35 38.3902 427.25 38.3102 427.21L37.5802 426.79C37.5442 426.773 37.505 426.764 37.4652 426.764C37.4255 426.764 37.3862 426.773 37.3502 426.79L36.6502 427.19C36.6002 427.23 36.5902 427.29 36.6502 427.33Z" fill="#3A2C6D"/>
<path d="M35.6202 426.73L36.3502 427.15C36.3862 427.167 36.4254 427.176 36.4652 427.176C36.505 427.176 36.5442 427.167 36.5802 427.15L37.2802 426.75C37.3502 426.75 37.3502 426.65 37.2802 426.61L36.5502 426.19C36.5142 426.173 36.475 426.164 36.4352 426.164C36.3954 426.164 36.3562 426.173 36.3202 426.19L35.6202 426.59C35.5602 426.63 35.5602 426.69 35.6202 426.73Z" fill="#3A2C6D"/>
<path d="M34.5799 426.13L35.3099 426.55C35.3452 426.569 35.3847 426.579 35.4249 426.579C35.4651 426.579 35.5046 426.569 35.5399 426.55L36.2399 426.15C36.3099 426.15 36.3199 426.05 36.2399 426.02L35.5099 425.59C35.4722 425.573 35.4313 425.564 35.3899 425.564C35.3485 425.564 35.3076 425.573 35.2699 425.59L34.5799 426C34.5299 426 34.5199 426.1 34.5799 426.13Z" fill="#3A2C6D"/>
<path d="M33.5402 425.53L34.2802 425.95C34.3155 425.969 34.3551 425.979 34.3952 425.979C34.4354 425.979 34.475 425.969 34.5102 425.95L35.2102 425.55C35.2702 425.55 35.2802 425.45 35.2102 425.42L34.4802 425C34.445 424.981 34.4054 424.971 34.3652 424.971C34.3251 424.971 34.2855 424.981 34.2502 425L33.5502 425.4C33.4902 425.44 33.4902 425.5 33.5402 425.53Z" fill="#3A2C6D"/>
<path d="M32.5101 424.93L33.2401 425.36C33.2761 425.377 33.3153 425.386 33.3551 425.386C33.3948 425.386 33.4341 425.377 33.4701 425.36L34.1701 424.95C34.2401 424.95 34.2501 424.85 34.1701 424.82L33.4401 424.4C33.403 424.381 33.3619 424.371 33.3201 424.371C33.2783 424.371 33.2371 424.381 33.2001 424.4L32.5101 424.8C32.4601 424.84 32.4501 424.9 32.5101 424.93Z" fill="#3A2C6D"/>
<path d="M31.47 424.34L32.2 424.76C32.2377 424.777 32.2786 424.786 32.32 424.786C32.3614 424.786 32.4024 424.777 32.44 424.76L33.13 424.36C33.2 424.36 33.21 424.26 33.13 424.22L32.4 423.8C32.3641 423.783 32.3248 423.774 32.285 423.774C32.2453 423.774 32.206 423.783 32.17 423.8L31.47 424.2C31.42 424.24 31.41 424.3 31.47 424.34Z" fill="#3A2C6D"/>
<path d="M30.44 423.74L31.17 424.16C31.206 424.177 31.2453 424.186 31.285 424.186C31.3248 424.186 31.364 424.177 31.4 424.16L32.1 423.76C32.17 423.76 32.17 423.66 32.1 423.62L31.37 423.2C31.334 423.183 31.2948 423.174 31.255 423.174C31.2153 423.174 31.176 423.183 31.14 423.2L30.44 423.6C30.38 423.64 30.38 423.7 30.44 423.74Z" fill="#3A2C6D"/>
<path d="M42.8602 430.91L44.0902 431.62C44.1262 431.637 44.1654 431.646 44.2052 431.646C44.2449 431.646 44.2842 431.637 44.3202 431.62L45.0202 431.22C45.0902 431.22 45.1002 431.12 45.0202 431.08L43.7902 430.37C43.7525 430.353 43.7116 430.344 43.6702 430.344C43.6288 430.344 43.5879 430.353 43.5502 430.37L42.8602 430.78C42.8102 430.82 42.8002 430.88 42.8602 430.91Z" fill="#3A2C6D"/>
<path d="M30.3502 422.6L31.0802 423.02C31.1402 423.02 31.1402 423.11 31.0802 423.15L30.3402 423.57C30.3087 423.59 30.2723 423.6 30.2352 423.6C30.1982 423.6 30.1618 423.59 30.1302 423.57H30.0702C30.039 423.555 30.0049 423.547 29.9702 423.547C29.9356 423.547 29.9014 423.555 29.8702 423.57L29.0902 424.02C29.0555 424.035 29.018 424.043 28.9802 424.043C28.9424 424.043 28.905 424.035 28.8702 424.02L28.4102 423.75C28.3502 423.75 28.3502 423.66 28.4102 423.62L29.1402 423.2L29.2902 423.12L29.4002 423.05L29.5102 422.99L30.1302 422.63C30.1609 422.606 30.1975 422.591 30.2362 422.585C30.2748 422.58 30.3142 422.585 30.3502 422.6V422.6Z" fill="#3A2C6D"/>
<path d="M40.3499 432.93L41.0799 433.35C41.1152 433.369 41.1547 433.379 41.1949 433.379C41.2351 433.379 41.2747 433.369 41.3099 433.35L42.0099 432.95C42.0799 432.95 42.0799 432.85 42.0099 432.82L41.2799 432.4C41.2447 432.381 41.2051 432.371 41.1649 432.371C41.1247 432.371 41.0852 432.381 41.0499 432.4L40.3499 432.8C40.2999 432.84 40.2899 432.9 40.3499 432.93Z" fill="#3A2C6D"/>
<path d="M39.3199 432.34L40.0499 432.76C40.0859 432.777 40.1251 432.786 40.1649 432.786C40.2047 432.786 40.2439 432.777 40.2799 432.76L40.9799 432.36C41.0499 432.36 41.0499 432.26 40.9799 432.22L40.2499 431.8C40.2139 431.783 40.1747 431.774 40.1349 431.774C40.0951 431.774 40.0559 431.783 40.0199 431.8L39.3199 432.2C39.2599 432.24 39.2599 432.3 39.3199 432.34Z" fill="#3A2C6D"/>
<path d="M38.28 431.74L39.02 432.16C39.0553 432.179 39.0948 432.189 39.135 432.189C39.1752 432.189 39.2147 432.179 39.25 432.16L39.95 431.76C40.01 431.76 40.02 431.66 39.95 431.63L39.22 431.21C39.1847 431.191 39.1452 431.181 39.105 431.181C39.0648 431.181 39.0253 431.191 38.99 431.21L38.29 431.62C38.23 431.65 38.23 431.71 38.28 431.74Z" fill="#3A2C6D"/>
<path d="M29.4998 426.67L30.2298 427.09C30.2669 427.109 30.3081 427.119 30.3498 427.119C30.3916 427.119 30.4328 427.109 30.4698 427.09L31.1598 426.69C31.2298 426.69 31.2398 426.59 31.1598 426.56L30.4298 426.13C30.3939 426.113 30.3546 426.104 30.3148 426.104C30.2751 426.104 30.2358 426.113 30.1998 426.13L29.4998 426.54C29.4498 426.58 29.4398 426.64 29.4998 426.67Z" fill="#3A2C6D"/>
<path d="M28.47 426.08L29.2 426.5C29.236 426.517 29.2753 426.526 29.315 426.526C29.3548 426.526 29.3941 426.517 29.43 426.5L30.13 426.09C30.2 426.09 30.21 426 30.13 425.96L29.4 425.54C29.363 425.521 29.3218 425.511 29.28 425.511C29.2383 425.511 29.1971 425.521 29.16 425.54L28.47 425.94C28.42 426 28.41 426 28.47 426.08Z" fill="#3A2C6D"/>
<path d="M27.4403 425.48L28.1703 425.9C28.2055 425.919 28.2451 425.929 28.2853 425.929C28.3254 425.929 28.365 425.919 28.4003 425.9L29.1003 425.5C29.1703 425.5 29.1803 425.4 29.1003 425.37L28.3703 424.94C28.3326 424.923 28.2917 424.914 28.2503 424.914C28.2089 424.914 28.1679 424.923 28.1303 424.94L27.4403 425.35C27.3903 425.39 27.3803 425.45 27.4403 425.48Z" fill="#3A2C6D"/>
<path d="M26.4102 424.88L27.1402 425.31C27.1761 425.327 27.2154 425.336 27.2552 425.336C27.2949 425.336 27.3342 425.327 27.3702 425.31L28.0702 424.9C28.1402 424.9 28.1402 424.8 28.0702 424.77L27.3302 424.35C27.2949 424.331 27.2554 424.321 27.2152 424.321C27.175 424.321 27.1354 424.331 27.1002 424.35L26.4002 424.75C26.3602 424.79 26.3502 424.85 26.4102 424.88Z" fill="#3A2C6D"/>
<path d="M37 431L38 431.58C38.0377 431.597 38.0786 431.606 38.12 431.606C38.1614 431.606 38.2023 431.597 38.24 431.58L38.93 431.18C39 431.18 39.01 431.08 38.93 431.04L37.93 430.47C37.8947 430.451 37.8552 430.441 37.815 430.441C37.7748 430.441 37.7353 430.451 37.7 430.47L37 430.87C36.94 430.9 36.93 431 37 431Z" fill="#3A2C6D"/>
<path d="M30.5301 427.27L31.5301 427.84C31.5654 427.859 31.6049 427.869 31.6451 427.869C31.6853 427.869 31.7248 427.859 31.7601 427.84L32.4601 427.44C32.5301 427.44 32.5401 427.34 32.4601 427.3L31.4601 426.73C31.4241 426.713 31.3849 426.704 31.3451 426.704C31.3053 426.704 31.2661 426.713 31.2301 426.73L30.5301 427.13C30.4801 427.17 30.4701 427.23 30.5301 427.27Z" fill="#3A2C6D"/>
<path d="M31.8299 428L36.6899 430.81C36.7258 430.827 36.7651 430.836 36.8049 430.836C36.8446 430.836 36.8839 430.827 36.9199 430.81L37.6199 430.41C37.6899 430.41 37.6899 430.31 37.6199 430.27L32.7699 427.47C32.7328 427.451 32.6916 427.441 32.6499 427.441C32.6081 427.441 32.5669 427.451 32.5299 427.47L31.8399 427.87C31.7799 427.92 31.7699 428 31.8299 428Z" fill="#3A2C6D"/>
<path d="M40.5399 430.73L41.2699 431.15C41.3051 431.169 41.3447 431.179 41.3849 431.179C41.4251 431.179 41.4646 431.169 41.4999 431.15L42.1999 430.75C42.2699 430.75 42.2799 430.65 42.1999 430.61L41.4699 430.19C41.4322 430.173 41.3913 430.164 41.3499 430.164C41.3085 430.164 41.2676 430.173 41.2299 430.19L40.5399 430.59C40.4899 430.63 40.4799 430.69 40.5399 430.73Z" fill="#3A2C6D"/>
<path d="M39.5101 430.13L40.2401 430.55C40.2754 430.569 40.3149 430.579 40.3551 430.579C40.3953 430.579 40.4348 430.569 40.4701 430.55L41.1701 430.15C41.2401 430.15 41.2401 430.05 41.1701 430.02L40.4401 429.6C40.4048 429.581 40.3653 429.571 40.3251 429.571C40.2849 429.571 40.2454 429.581 40.2101 429.6L39.5101 430C39.4601 430 39.4501 430.1 39.5101 430.13Z" fill="#3A2C6D"/>
<path d="M38.4699 429.54L39.2099 429.96C39.2459 429.977 39.2852 429.986 39.3249 429.986C39.3647 429.986 39.404 429.977 39.4399 429.96L40.1399 429.56C40.1999 429.56 40.2099 429.46 40.1399 429.42L39.4099 429C39.374 428.983 39.3347 428.974 39.2949 428.974C39.2552 428.974 39.2159 428.983 39.1799 429L38.4799 429.4C38.4199 429.44 38.4199 429.5 38.4699 429.54Z" fill="#3A2C6D"/>
<path d="M37.4403 428.94L38.1703 429.36C38.2055 429.379 38.2451 429.389 38.2853 429.389C38.3254 429.389 38.365 429.379 38.4003 429.36L39.1003 428.96C39.1703 428.96 39.1803 428.86 39.1003 428.82L38.3703 428.4C38.3343 428.383 38.295 428.374 38.2553 428.374C38.2155 428.374 38.1762 428.383 38.1403 428.4L37.4403 428.81C37.3903 428.85 37.3803 428.91 37.4403 428.94Z" fill="#3A2C6D"/>
<path d="M36.41 428.34L37.14 428.76C37.1753 428.779 37.2148 428.789 37.255 428.789C37.2952 428.789 37.3347 428.779 37.37 428.76L38.07 428.35C38.14 428.35 38.15 428.25 38.07 428.22L37.34 427.8C37.3029 427.781 37.2618 427.771 37.22 427.771C37.1782 427.771 37.137 427.781 37.1 427.8L36.41 428.2C36.36 428.25 36.35 428.31 36.41 428.34Z" fill="#3A2C6D"/>
<path d="M35.38 427.75L36.11 428.17C36.1459 428.187 36.1852 428.196 36.225 428.196C36.2647 428.196 36.304 428.187 36.34 428.17L37.04 427.77C37.1 427.77 37.11 427.67 37.04 427.63L36.31 427.21C36.274 427.193 36.2347 427.184 36.195 427.184C36.1552 427.184 36.1159 427.193 36.08 427.21L35.38 427.61C35.32 427.65 35.32 427.71 35.38 427.75Z" fill="#3A2C6D"/>
<path d="M34.3402 427.15L35.0702 427.57C35.1072 427.589 35.1484 427.6 35.1902 427.6C35.2319 427.6 35.2731 427.589 35.3102 427.57L36.0002 427.17C36.0702 427.17 36.0802 427.07 36.0002 427.04L35.2702 426.61C35.2342 426.593 35.1949 426.584 35.1552 426.584C35.1154 426.584 35.0761 426.593 35.0402 426.61L34.3402 427.02C34.2902 427.06 34.2802 427.12 34.3402 427.15Z" fill="#3A2C6D"/>
<path d="M33.3103 426.55L34.0003 427C34.0362 427.017 34.0755 427.026 34.1153 427.026C34.155 427.026 34.1943 427.017 34.2303 427L34.9303 426.59C35.0003 426.59 35.0103 426.49 34.9303 426.46L34.2003 426.04C34.1632 426.021 34.122 426.011 34.0803 426.011C34.0385 426.011 33.9973 426.021 33.9603 426.04L33.2703 426.44C33.2603 426.46 33.2503 426.52 33.3103 426.55Z" fill="#3A2C6D"/>
<path d="M32.2799 426L33.0099 426.42C33.0458 426.437 33.0851 426.446 33.1249 426.446C33.1646 426.446 33.2039 426.437 33.2399 426.42L33.9399 426.02C34.0099 426.02 34.0099 425.92 33.9399 425.88L33.2099 425.46C33.1739 425.443 33.1346 425.434 33.0949 425.434C33.0551 425.434 33.0158 425.443 32.9799 425.46L32.2799 425.86C32.2199 425.86 32.2199 425.92 32.2799 426Z" fill="#3A2C6D"/>
<path d="M31.2401 425.36L31.9701 425.78C32.0071 425.799 32.0483 425.81 32.0901 425.81C32.1318 425.81 32.173 425.799 32.2101 425.78L32.9001 425.38C32.9701 425.38 32.9801 425.28 32.9001 425.25L32.1701 424.82C32.1341 424.803 32.0948 424.794 32.0551 424.794C32.0153 424.794 31.976 424.803 31.9401 424.82L31.2401 425.23C31.1901 425.27 31.1801 425.33 31.2401 425.36Z" fill="#3A2C6D"/>
<path d="M30.2103 424.76L30.9403 425.19C30.9763 425.207 31.0155 425.216 31.0553 425.216C31.095 425.216 31.1343 425.207 31.1703 425.19L31.8703 424.78C31.9403 424.78 31.9503 424.68 31.8703 424.65L31.1403 424.23C31.1032 424.211 31.0621 424.201 31.0203 424.201C30.9785 424.201 30.9373 424.211 30.9003 424.23L30.2103 424.63C30.1603 424.67 30.1503 424.73 30.2103 424.76Z" fill="#3A2C6D"/>
<path d="M29.1803 424.17L29.9103 424.59C29.9462 424.607 29.9855 424.616 30.0253 424.616C30.065 424.616 30.1043 424.607 30.1403 424.59L30.8403 424.19C30.9103 424.19 30.9103 424.09 30.8403 424.05L30.1103 423.63C30.0743 423.613 30.035 423.604 29.9953 423.604C29.9555 423.604 29.9162 423.613 29.8803 423.63L29.1803 424.03C29.1203 424.07 29.1203 424.13 29.1803 424.17Z" fill="#3A2C6D"/>
<path d="M41.5701 431.33L43.0901 432.2C43.1261 432.217 43.1654 432.226 43.2051 432.226C43.2449 432.226 43.2842 432.217 43.3201 432.2L44.0101 431.8C44.0801 431.8 44.0901 431.7 44.0101 431.66L42.5001 430.79C42.4649 430.771 42.4253 430.761 42.3851 430.761C42.345 430.761 42.3054 430.771 42.2701 430.79L41.5701 431.19C41.5201 431.23 41.5101 431.29 41.5701 431.33Z" fill="#3A2C6D"/>
<path d="M40.0502 431.6L40.7802 432.03C40.8162 432.047 40.8554 432.056 40.8952 432.056C40.935 432.056 40.9742 432.047 41.0102 432.03L41.7102 431.62C41.7802 431.62 41.7902 431.52 41.7102 431.49L40.9802 431.07C40.9449 431.051 40.9054 431.041 40.8652 431.041C40.825 431.041 40.7855 431.051 40.7502 431.07L40.0502 431.47C40.0002 431.51 40.0002 431.57 40.0502 431.6Z" fill="#3A2C6D"/>
<path d="M39 431L39.73 431.42C39.766 431.437 39.8052 431.446 39.845 431.446C39.8848 431.446 39.924 431.437 39.96 431.42L40.66 431.02C40.73 431.02 40.74 430.92 40.66 430.88L39.92 430.46C39.884 430.443 39.8448 430.434 39.805 430.434C39.7652 430.434 39.726 430.443 39.69 430.46L39 430.86C39 430.91 39 431 39 431Z" fill="#3A2C6D"/>
<path d="M38.0003 430.41L38.7303 430.83C38.7655 430.849 38.8051 430.859 38.8453 430.859C38.8854 430.859 38.925 430.849 38.9603 430.83L39.6603 430.43C39.7203 430.43 39.7303 430.33 39.6603 430.3L38.9303 429.87C38.8943 429.853 38.855 429.844 38.8153 429.844C38.7755 429.844 38.7362 429.853 38.7003 429.87L38.0003 430.28C37.9303 430.32 37.9303 430.38 38.0003 430.41Z" fill="#3A2C6D"/>
<path d="M37.0002 429.81L37.7302 430.24C37.7679 430.257 37.8088 430.266 37.8502 430.266C37.8916 430.266 37.9325 430.257 37.9702 430.24L38.6602 429.83C38.7302 429.83 38.7402 429.73 38.6602 429.7L37.9302 429.28C37.8949 429.261 37.8554 429.251 37.8152 429.251C37.775 429.251 37.7355 429.261 37.7002 429.28L37.0002 429.68C36.9002 429.72 36.8902 429.78 37.0002 429.81Z" fill="#3A2C6D"/>
<path d="M35.9202 429.22L36.6502 429.64C36.6862 429.657 36.7255 429.666 36.7652 429.666C36.805 429.666 36.8443 429.657 36.8802 429.64L37.5802 429.24C37.6502 429.24 37.6602 429.14 37.5802 429.1L36.8502 428.68C36.8126 428.663 36.7716 428.654 36.7302 428.654C36.6888 428.654 36.6479 428.663 36.6102 428.68L35.9202 429.08C35.8702 429.12 35.8602 429.18 35.9202 429.22Z" fill="#3A2C6D"/>
<path d="M34.8902 428.62L35.6202 429.04C35.6555 429.059 35.695 429.069 35.7352 429.069C35.7754 429.069 35.8149 429.059 35.8502 429.04L36.5502 428.64C36.6202 428.64 36.6202 428.54 36.5502 428.51L35.8202 428.09C35.7849 428.071 35.7454 428.061 35.7052 428.061C35.665 428.061 35.6255 428.071 35.5902 428.09L34.8902 428.49C34.8302 428.53 34.8302 428.59 34.8902 428.62Z" fill="#3A2C6D"/>
<path d="M33.8499 428L34.5799 428.42C34.6176 428.437 34.6585 428.446 34.6999 428.446C34.7413 428.446 34.7822 428.437 34.8199 428.42L35.5099 428.02C35.5799 428.02 35.5899 427.92 35.5099 427.88L34.7799 427.46C34.7447 427.441 34.7051 427.431 34.6649 427.431C34.6247 427.431 34.5852 427.441 34.5499 427.46L33.8499 427.86C33.7999 427.93 33.7899 428 33.8499 428Z" fill="#3A2C6D"/>
<path d="M32.8201 427.43L33.5501 427.85C33.5854 427.869 33.625 427.879 33.6651 427.879C33.7053 427.879 33.7449 427.869 33.7801 427.85L34.4801 427.45C34.5501 427.45 34.5601 427.35 34.4801 427.31L33.7501 426.89C33.7125 426.873 33.6715 426.864 33.6301 426.864C33.5887 426.864 33.5478 426.873 33.5101 426.89L32.8201 427.3C32.7701 427.33 32.7601 427.39 32.8201 427.43Z" fill="#3A2C6D"/>
<path d="M31.7901 426.83L32.5201 427.25C32.5558 427.268 32.5952 427.277 32.6351 427.277C32.6749 427.277 32.7143 427.268 32.7501 427.25L33.4501 426.84C33.5201 426.84 33.5201 426.74 33.4501 426.71L32.7101 426.29C32.6748 426.271 32.6352 426.261 32.5951 426.261C32.5549 426.261 32.5153 426.271 32.4801 426.29L31.7801 426.69C31.7401 426.74 31.7301 426.8 31.7901 426.83Z" fill="#3A2C6D"/>
<path d="M30.7598 426.24L31.4898 426.66C31.5258 426.677 31.5651 426.686 31.6048 426.686C31.6446 426.686 31.6839 426.677 31.7198 426.66L32.4198 426.26C32.4798 426.26 32.4898 426.16 32.4198 426.12L31.6898 425.7C31.6539 425.683 31.6146 425.674 31.5748 425.674C31.5351 425.674 31.4958 425.683 31.4598 425.7L30.7598 426.1C30.6998 426.14 30.6998 426.2 30.7598 426.24Z" fill="#3A2C6D"/>
<path d="M29.72 425.64L30.45 426.06C30.4871 426.079 30.5283 426.089 30.57 426.089C30.6118 426.089 30.653 426.079 30.69 426.06L31.38 425.66C31.45 425.66 31.46 425.56 31.38 425.53L30.65 425.1C30.6141 425.083 30.5748 425.074 30.535 425.074C30.4953 425.074 30.456 425.083 30.42 425.1L29.72 425.51C29.67 425.55 29.66 425.61 29.72 425.64Z" fill="#3A2C6D"/>
<path d="M27.41 424.31L29.41 425.47C29.446 425.487 29.4852 425.496 29.525 425.496C29.5647 425.496 29.604 425.487 29.64 425.47L30.34 425.06C30.41 425.06 30.42 424.96 30.34 424.93L28.34 423.77C28.3029 423.751 28.2618 423.741 28.22 423.741C28.1782 423.741 28.137 423.751 28.1 423.77L27.41 424.17C27.36 424.21 27.35 424.27 27.41 424.31Z" fill="#3A2C6D"/>
<path d="M41.08 432.2L42.08 432.78C42.116 432.797 42.1553 432.806 42.195 432.806C42.2348 432.806 42.274 432.797 42.31 432.78L43.01 432.37C43.08 432.37 43.09 432.27 43.01 432.24L42.01 431.66C41.974 431.643 41.9348 431.634 41.895 431.634C41.8553 431.634 41.816 431.643 41.78 431.66L41.08 432.07C41 432.11 41 432.17 41.08 432.2Z" fill="#3A2C6D"/>
<path d="M48.6601 430.15L32.0801 420.57V407.57L32.2101 407.27L32.3401 407.21C32.5142 407.107 32.7128 407.053 32.9151 407.053C33.1174 407.053 33.3159 407.107 33.4901 407.21L48.6601 415.96C48.8332 416.063 48.9767 416.21 49.0766 416.385C49.1764 416.56 49.2293 416.758 49.2301 416.96V429.2C49.1201 429.79 49.0001 429.94 48.6601 430.15Z" fill="#E5E5E5"/>
<path d="M47.1401 417.51L32.0801 408V407.57L32.2101 407.27L32.3401 407.21C32.5142 407.107 32.7128 407.053 32.9151 407.053C33.1174 407.053 33.3159 407.107 33.4901 407.21L48.6601 415.96C48.8467 416.066 48.9966 416.227 49.0901 416.42L47.1401 417.51Z" fill="#E5E5E5"/>
<path d="M32.4602 407.24L48.3802 416.43C48.4639 416.479 48.5336 416.549 48.5826 416.633C48.6316 416.717 48.6583 416.813 48.6602 416.91V430.15L32.0802 420.57V407.46C32.079 407.415 32.0899 407.371 32.1119 407.331C32.1338 407.292 32.1659 407.26 32.2048 407.237C32.2437 407.214 32.2879 407.203 32.3329 407.203C32.3778 407.204 32.4218 407.217 32.4602 407.24V407.24Z" fill="#DCEEFF"/>
<path d="M32.4602 407.24L48.3802 416.43C48.4639 416.479 48.5336 416.549 48.5826 416.633C48.6316 416.717 48.6583 416.813 48.6602 416.91V430.15L32.0802 420.57V407.46C32.079 407.415 32.0899 407.371 32.1119 407.331C32.1338 407.292 32.1659 407.26 32.2048 407.237C32.2437 407.214 32.2879 407.203 32.3329 407.203C32.3778 407.204 32.4218 407.217 32.4602 407.24V407.24Z" fill="#F4F4F4"/>
<path d="M48.6601 430.15V429.67L32.0801 420.1V420.57L48.6601 430.15Z" fill="#DBDBDB"/>
<path d="M32.5103 419.88V407.93L32.7103 408.04V419.78L32.5103 419.88Z" fill="#1E3779"/>
<path d="M32.71 408.04V419.78L48.13 428.65V416.94L32.71 408.04Z" fill="#0D102D"/>
<path d="M32.5103 419.88L48.1303 428.89V428.65L32.7103 419.78L32.5103 419.88Z" fill="#031F60"/>
<path d="M14.6601 405.17C14.2601 406.17 15.2701 407.35 17.9401 408.17C20.6101 408.99 20.8501 407.93 20.8501 407.93C22.6309 408.728 24.3668 409.623 26.0501 410.61C27.6501 411.73 28.3601 414.98 28.5801 420.46C28.8301 426.8 28.8501 436.2 28.6401 437.83C28.6401 437.83 25.6401 440.83 21.8101 440.5C17.9801 440.17 11.5101 436.79 9.95006 434.17C9.95006 428.61 10.6401 427.7 9.74006 424.5C7.68006 417.17 6.59006 414.17 7.60006 409.29C8.42006 405.29 9.60006 404.78 11.1701 404.82C12.3387 404.875 13.5037 404.992 14.6601 405.17V405.17Z" fill="#F4F4F4"/>
<path d="M34.8898 427.27C31.7398 428.07 30.9998 426.08 30.5898 424.44C29.5898 420.44 29.0498 416.86 28.2998 414.6C27.4198 411.94 26.4998 411.51 25.1998 410.99C23.6898 410.38 22.3798 411.67 22.8798 415.06C23.5034 418.997 24.4704 422.872 25.7698 426.64C26.2297 428.336 27.1182 429.886 28.3498 431.14C29.9798 432.46 32.4298 432.4 36.1298 431.48C38.2998 430.741 40.4066 429.828 42.4298 428.75C43.2298 428.38 43.8498 428.13 45.4298 427.41C46.995 426.726 48.3685 425.668 49.4298 424.33C50.2298 423.16 50.3398 422.61 50.1798 422.33C50.0198 422.05 49.5998 422.07 49.1798 422.56C48.5591 423.388 47.7933 424.096 46.9198 424.65C46.9198 424.65 47.9198 423.65 48.4498 422.96C48.9354 422.351 49.3358 421.678 49.6398 420.96C49.9298 420.28 49.3398 419.36 48.8898 419.84C48.4398 420.32 48.2398 420.84 47.4198 421.84C46.9915 422.361 46.5012 422.828 45.9598 423.23C46.4672 422.548 46.9187 421.825 47.3098 421.07C47.6606 420.464 47.8306 419.77 47.7998 419.07C47.7998 418.72 47.2698 418.3 46.7998 418.97C46.3127 419.925 45.708 420.815 44.9998 421.62C44.2798 422.37 43.6698 422.8 43.6498 422.62C43.6298 422.44 44.0898 422 44.3398 421.14C44.5898 420.28 44.3398 419.35 43.8598 419.25C43.3798 419.15 43.4698 419.17 43.0898 419.99C42.556 420.824 42.0782 421.693 41.6598 422.59C41.4131 423.428 40.967 424.193 40.3598 424.82C39.5998 425.61 37.8898 426.52 34.8898 427.27Z" fill="#FFCEA9"/>
<path d="M24.0001 410.45C26.1001 410.14 27.5901 411.09 28.5201 414.27C29.4501 417.45 30.0901 420.07 30.0901 420.07C29.26 421.272 28 422.11 26.5701 422.41C24.0601 423.02 23.1501 421.82 23.1501 421.82C23.1501 421.82 22.4501 418.48 22.0201 416.21C21.5901 413.94 21.4401 410.83 24.0001 410.45Z" fill="#EDEDED"/>
<path d="M25.08 394.14C25.08 394.14 28.4 389.09 21.2 388.06C16.01 387.32 12.67 390.65 12.29 394.27C11.92 397.73 14.05 401.32 15.58 402.75C17.0917 403.135 18.6926 402.942 20.07 402.21C20.1558 401.266 20.1892 400.318 20.17 399.37C20.17 399.37 17.64 394.05 25.08 394.14Z" fill="#0D102D"/>
<path d="M39.4899 458.05V442.88L27.4399 449.91L32.0799 459.5L39.4899 458.05Z" fill="#C4C7D6"/>
<path d="M31.5898 443.75L36.2098 441.07L39.4798 442.96L34.6898 445.68L31.5898 443.75Z" fill="#D6D8E5"/>
<path opacity="0.4" d="M222.1 375L165.18 342.14C161.07 339.77 161.59 335.63 166.33 332.89L203.21 311.6L275 353.08L238.13 374.37C233.38 377.11 226.21 377.4 222.1 375Z" fill="#D6D8E5"/>
<path d="M226.26 372.59L169.33 339.72C165.23 337.35 165.75 333.22 170.48 330.48L207.36 309.19L279.15 350.63L242.27 371.93C237.53 374.66 230.36 375 226.26 372.59Z" fill="#B1B4C4"/>
<path d="M279.15 350.63V348.46L275.84 350.37L279.15 350.63Z" fill="#B1B4C4"/>
<path d="M166.56 335.81V333.6L169.97 335.01L166.56 335.81Z" fill="#B1B4C4"/>
<path d="M226.26 370.42L169.33 337.55C165.23 335.18 165.75 331.04 170.48 328.31L207.36 307L279.15 348.45L242.27 369.74C237.53 372.49 230.36 372.78 226.26 370.42Z" fill="#D6D8E5"/>
<path d="M207.56 307.11L198.67 277.63L271.24 319.26L279.15 348.46L207.56 307.11Z" fill="#9EA1AF"/>
<path d="M277.05 349.67L279.15 348.46L276 346L277.05 349.67Z" fill="#9EA1AF"/>
<path d="M205.27 308.22L196.38 278.74L268.95 320.37L277.05 349.67L205.27 308.22Z" fill="#B1B4C4"/>
<path d="M389.49 399.35L108.58 237.17C104.64 234.89 101.45 228.79 101.45 223.54V6.25007C101.45 1.00007 104.64 -1.41993 108.58 0.860067L389.49 163C393.43 165.27 396.62 171.37 396.62 176.63V394C396.62 399.21 393.43 401.63 389.49 399.35Z" fill="#C4C7D6"/>
<path d="M390.93 401.59L394.05 399.8L392.7 390.57L390.93 401.59Z" fill="#C4C7D6"/>
<path d="M100.94 2.19018L104 0.430176L108.4 2.94018C108.4 2.94018 103.71 3.65018 103.6 3.62018C103.49 3.59018 100.94 2.19018 100.94 2.19018Z" fill="#B1B4C4"/>
<path d="M386.91 400.84L106 238.66C102.06 236.38 98.8599 230.28 98.8599 225.03V7.74003C98.8599 2.48003 102.06 0.0700278 106 2.34003L386.9 164.52C390.84 166.8 394.04 172.9 394.04 178.16V395.44C394.05 400.7 390.85 403.11 386.91 400.84Z" fill="#E4E7F2"/>
<path d="M386.42 401.12L105.51 238.94C101.57 236.66 98.3799 230.56 98.3799 225.31V8.00007C98.3799 2.75007 101.57 0.330067 105.51 2.61007L386.42 164.81C390.36 167.08 393.55 173.18 393.55 178.44V395.73C393.55 401 390.36 403.4 386.42 401.12Z" fill="#201D38"/>
<path opacity="0.3" d="M389.69 387.91L101.94 221.78L102.09 8.89005C102.09 6.71005 103.62 5.83005 105.51 6.89005L386.42 169.1C387.416 169.748 388.244 170.622 388.838 171.651C389.433 172.679 389.776 173.834 389.84 175.02L389.69 387.91Z" fill="url(#paint0_linear)"/>
<path d="M200.51 146.27L160 122.88V116L200.51 139.39V146.27Z" fill="#333759"/>
<path opacity="0.4" d="M299.75 500C322.858 500 341.59 489.183 341.59 475.84C341.59 462.497 322.858 451.68 299.75 451.68C276.643 451.68 257.91 462.497 257.91 475.84C257.91 489.183 276.643 500 299.75 500Z" fill="#D6D8E5"/>
<path d="M345.7 472.41V408L262.19 410.1L262.37 469.5C260.81 476.65 264.77 484.12 274.28 489.61C290.62 499.04 317.11 499.05 333.45 489.61C341.66 484.84 345.74 478.62 345.7 472.41Z" fill="#0D102D"/>
<path d="M303.86 432.13C326.968 432.13 345.7 421.313 345.7 407.97C345.7 394.627 326.968 383.81 303.86 383.81C280.752 383.81 262.02 394.627 262.02 407.97C262.02 421.313 280.752 432.13 303.86 432.13Z" fill="#2E314C"/>
<path d="M339.09 408C339.09 411.93 335.82 416.06 330.14 419.35C323.94 422.91 315.47 425.11 306.55 425.47C305.66 425.47 304.77 425.53 303.87 425.53C293.97 425.53 284.4 423.27 277.59 419.35C271.91 416.06 268.64 411.93 268.64 408C268.64 404.07 271.91 399.94 277.59 396.65C284.4 392.72 293.97 390.46 303.86 390.46C304.76 390.46 305.66 390.46 306.55 390.52C315.47 390.88 323.94 393.08 330.14 396.65C335.82 399.91 339.09 404 339.09 408Z" fill="#6C4D2F"/>
<path opacity="0.07" d="M339.09 408C339.09 411.93 335.82 416.06 330.14 419.35C323.94 422.91 315.47 425.11 306.55 425.47C297.63 425.11 289.15 422.91 282.96 419.35C277.27 416 274 411.9 274 408C274 404.1 277.26 399.94 282.94 396.65C289.14 393.08 297.62 390.88 306.54 390.52C315.46 390.88 323.93 393.08 330.13 396.65C335.82 399.91 339.09 404 339.09 408Z" fill="white"/>
<path d="M339.58 437.81L330.7 432.67L326.38 435.17L330.7 437.67V439.31L339.03 444.11L338.78 445.65C339.99 446.65 344.3 454.65 344.3 454.65L344.6 454.37V475.1C344.6 480.54 341.41 478.7 340.05 477.91L330.7 472.51L326.38 475L330.7 477.49V479.13L340.05 484.53C340.995 485.097 342.001 485.553 343.05 485.89L342.49 488.49L347.33 485.76H347.4H347.47C349.47 484.58 350.32 481.71 350.32 478.49V456.74C350.36 447.55 343.31 440.34 339.58 437.81Z" fill="#23335B"/>
<path d="M335.73 487.06L326.38 481.66V475L335.73 480.4C337.09 481.18 340.28 483.03 340.28 477.58V455.93C340.28 450.81 335.65 447.27 334.86 446.71L326.38 441.81V435.17L335.26 440.31C339 442.84 346 450.06 346 459.25V480.92C346 486.77 343.33 491.44 335.73 487.06Z" fill="#2E314C"/>
<path opacity="0.4" d="M41.3701 372.01C57.2814 372.01 70.1801 364.56 70.1801 355.37C70.1801 346.18 57.2814 338.73 41.3701 338.73C25.4587 338.73 12.5601 346.18 12.5601 355.37C12.5601 364.56 25.4587 372.01 41.3701 372.01Z" fill="#D6D8E5"/>
<path d="M45.4799 368.93C61.3912 368.93 74.2899 361.48 74.2899 352.29C74.2899 343.1 61.3912 335.65 45.4799 335.65C29.5686 335.65 16.6699 343.1 16.6699 352.29C16.6699 361.48 29.5686 368.93 45.4799 368.93Z" fill="#D6D8E5"/>
<path d="M6.91016 295.41L16.9902 353.44H74.2202L84.0502 295.83L6.91016 295.41Z" fill="#D6D8E5"/>
<path d="M45.4801 316.98C66.8038 316.98 84.0901 307.001 84.0901 294.69C84.0901 282.38 66.8038 272.4 45.4801 272.4C24.1564 272.4 6.87012 282.38 6.87012 294.69C6.87012 307.001 24.1564 316.98 45.4801 316.98Z" fill="#E4E6EF"/>
<path d="M45.48 312.06C36.02 312.06 27.2 309.98 20.64 306.19C15.01 302.95 11.79 298.75 11.79 294.69C11.79 290.63 15.01 286.43 20.64 283.19C27.19 279.4 36.02 277.32 45.48 277.32C54.94 277.32 63.77 279.4 70.32 283.19C75.95 286.43 79.17 290.63 79.17 294.69C79.17 298.75 76 303 70.32 306.19C63.77 310 55 312.06 45.48 312.06Z" fill="#28221C"/>
<path d="M62.0901 277.13C62.6365 269.631 61.4425 262.108 58.6011 255.146C55.7597 248.185 51.3479 241.975 45.7101 237L45.6001 236.89V237.1C39.9571 242.075 35.5413 248.289 32.698 255.254C29.8547 262.219 28.661 269.747 29.2101 277.25L7.12012 275.12C16.4401 310.23 45.7101 307.21 45.7101 307.21V307.14C47.9201 307.31 75.2201 308.72 84.1501 275.04L62.0901 277.13Z" fill="#0D102D"/>
<path d="M45.7101 307.21C45.7101 307.21 43.7101 279.87 7.03014 261.46C7.00014 261.46 -1.65986 306.88 45.7101 307.21Z" fill="#2E314C"/>
<path d="M45.48 307.21C45.48 307.21 47.48 279.87 84.16 261.46C84.16 261.46 92.85 306.88 45.48 307.21Z" fill="#2E314C"/>
<path d="M172.42 188.79L159 180.88V174L172.42 181.91V188.79Z" fill="#A5ABE4"/>
<path d="M288.34 193.7L280 188.88V182L288.34 186.82V193.7Z" fill="#A5ABE4"/>
<path d="M284.44 249.32L279 245.88V239L284.44 242.44V249.32Z" fill="#A5ABE4"/>
<path d="M153.07 89.89L134 78.88V72L153.07 83.01V89.89Z" fill="#595F95"/>
<path d="M153.07 103.89L134 92.88V86L153.07 97.01V103.89Z" fill="#595F95"/>
<path d="M153.07 119.89L134 108.88V102L153.07 113.01V119.89Z" fill="#595F95"/>
<path d="M213.62 123.84L160 92.88V86L213.62 116.96V123.84Z" fill="#A5ABE4"/>
<path d="M213.62 168.84L160 137.88V131L213.62 161.96V168.84Z" fill="#A5ABE4"/>
<path d="M233.38 149.87L159 106.88V100L233.38 142.99V149.87Z" fill="#595F95"/>
<path d="M198.51 189.27L158 165.88V159L198.51 182.39V189.27Z" fill="#333759"/>
<path d="M153.07 134.89L134 123.88V117L153.07 128.01V134.89Z" fill="#595F95"/>
<path d="M153.07 149.89L134 138.88V132L153.07 143.01V149.89Z" fill="#595F95"/>
<path d="M153.07 163.89L134 152.88V146L153.07 157.01V163.89Z" fill="#595F95"/>
<path d="M153.07 177.89L134 166.88V160L153.07 171.01V177.89Z" fill="#595F95"/>
<path d="M233.38 195.87L159 152.88V146L233.38 188.99V195.87Z" fill="#595F95"/>
<path d="M273.07 155.89L254 144.88V138L273.07 149.01V155.89Z" fill="#595F95"/>
<path d="M273.07 169.89L254 158.88V152L273.07 163.01V169.89Z" fill="#595F95"/>
<path d="M273.07 185.89L254 174.88V168L273.07 179.01V185.89Z" fill="#595F95"/>
<path d="M333.62 189.84L280 158.88V152L333.62 182.96V189.84Z" fill="#A5ABE4"/>
<path d="M333.62 234.84L280 203.88V197L333.62 227.96V234.84Z" fill="#A5ABE4"/>
<path d="M353.38 215.87L279 172.88V166L353.38 208.99V215.87Z" fill="#595F95"/>
<path d="M318.51 255.27L278 231.88V225L318.51 248.39V255.27Z" fill="#333759"/>
<path d="M273.07 200.89L254 189.88V183L273.07 194.01V200.89Z" fill="#595F95"/>
<path d="M273.07 215.89L254 204.88V198L273.07 209.01V215.89Z" fill="#595F95"/>
<path d="M273.07 229.89L254 218.88V212L273.07 223.01V229.89Z" fill="#595F95"/>
<path d="M273.07 243.89L254 232.88V226L273.07 237.01V243.89Z" fill="#595F95"/>
<path d="M353.38 261.87L279 218.88V212L353.38 254.99V261.87Z" fill="#595F95"/>
</g>
<defs>
<linearGradient id="paint0_linear" x1="101.94" y1="197.18" x2="389.84" y2="197.18" gradientUnits="userSpaceOnUse">
<stop offset="0.21" stop-color="white" stop-opacity="0"/>
<stop offset="1" stop-color="white" stop-opacity="0.2"/>
</linearGradient>
<clipPath id="clip0">
<rect width="396.62" height="500" fill="white"/>
</clipPath>
</defs>
</svg>
