<svg width="25" height="23" viewBox="0 0 25 23" fill="none" xmlns="http://www.w3.org/2000/svg">
<path d="M23.1667 0H1.83333C1.096 0 0.5 0.572444 0.5 1.27778V21.7222C0.5 22.4276 1.096 23 1.83333 23H13.32V14.1067H10.2027V10.6247H13.32V8.06917C13.32 5.09833 15.2133 3.47939 17.9867 3.47939C18.9187 3.47683 19.852 3.52283 20.78 3.61611V6.70833H18.8667C17.3627 6.70833 17.0693 7.39578 17.0693 8.40139V10.6183H20.6653L20.1987 14.1003H17.068V23H23.1667C23.904 23 24.5 22.4276 24.5 21.7222V1.27778C24.5 0.572444 23.904 0 23.1667 0Z" fill="#0D102D"/>
</svg>
