<svg width="29" height="29" viewBox="0 0 29 29" fill="none" xmlns="http://www.w3.org/2000/svg">
<path d="M25.3109 10.0352C25.2976 9.12051 25.1285 8.21305 24.8046 7.35755C24.2379 5.89668 23.084 4.74151 21.6231 4.17601C20.7785 3.85822 19.8855 3.68784 18.9817 3.66851C17.8193 3.61655 17.4507 3.60205 14.5 3.60205C11.5492 3.60205 11.171 3.60205 10.017 3.66851C9.11442 3.68784 8.22146 3.85822 7.37684 4.17601C5.91596 4.74151 4.7608 5.89668 4.1953 7.35755C3.8775 8.20218 3.70592 9.09513 3.689 9.99776C3.63705 11.1614 3.62134 11.5299 3.62134 14.4807C3.62134 17.4314 3.62134 17.8084 3.689 18.9636C3.70713 19.8674 3.8775 20.7592 4.1953 21.6062C4.762 23.0659 5.91596 24.2211 7.37805 24.7866C8.21905 25.1152 9.11201 25.3013 10.0183 25.3303C11.1819 25.3823 11.5504 25.398 14.5012 25.398C17.4519 25.398 17.8301 25.398 18.9841 25.3303C19.8867 25.3122 20.7797 25.1418 21.6255 24.824C23.0864 24.2573 24.2403 23.1021 24.8071 21.6425C25.1248 20.7966 25.2952 19.9049 25.3133 18.9998C25.3653 17.8374 25.381 17.4689 25.381 14.5169C25.3786 11.5662 25.3786 11.1916 25.3109 10.0352ZM14.4927 20.0608C11.4066 20.0608 8.90659 17.5607 8.90659 14.4746C8.90659 11.3886 11.4066 8.88851 14.4927 8.88851C17.5764 8.88851 20.0788 11.3886 20.0788 14.4746C20.0788 17.5607 17.5764 20.0608 14.4927 20.0608ZM20.3012 9.98447C19.5798 9.98447 18.9986 9.40205 18.9986 8.68188C18.9986 7.96172 19.5798 7.3793 20.3012 7.3793C21.0201 7.3793 21.6025 7.96172 21.6025 8.68188C21.6025 9.40205 21.0201 9.98447 20.3012 9.98447Z" fill="#0D102D"/>
<path d="M14.4926 18.1032C16.4967 18.1032 18.1213 16.4786 18.1213 14.4746C18.1213 12.4705 16.4967 10.8459 14.4926 10.8459C12.4886 10.8459 10.864 12.4705 10.864 14.4746C10.864 16.4786 12.4886 18.1032 14.4926 18.1032Z" fill="#0D102D"/>
</svg>
