<svg width="23" height="23" viewBox="0 0 23 23" fill="none" xmlns="http://www.w3.org/2000/svg">
<path d="M22.3109 7.03522C22.2976 6.12051 22.1285 5.21305 21.8046 4.35755C21.2379 2.89668 20.084 1.74151 18.6231 1.17601C17.7785 0.858218 16.8855 0.687843 15.9817 0.668509C14.8193 0.616551 14.4507 0.602051 11.5 0.602051C8.54921 0.602051 8.17101 0.602051 7.01705 0.668509C6.11442 0.687843 5.22146 0.858218 4.37684 1.17601C2.91596 1.74151 1.7608 2.89668 1.1953 4.35755C0.877504 5.20218 0.705921 6.09513 0.689005 6.99776C0.637046 8.16138 0.621338 8.52993 0.621338 11.4807C0.621338 14.4314 0.621338 14.8084 0.689005 15.9636C0.70713 16.8674 0.877504 17.7592 1.1953 18.6062C1.762 20.0659 2.91596 21.2211 4.37805 21.7866C5.21905 22.1152 6.11201 22.3013 7.01826 22.3303C8.18188 22.3823 8.55042 22.398 11.5012 22.398C14.4519 22.398 14.8301 22.398 15.9841 22.3303C16.8867 22.3122 17.7797 22.1418 18.6255 21.824C20.0864 21.2573 21.2403 20.1021 21.8071 18.6425C22.1248 17.7966 22.2952 16.9049 22.3133 15.9998C22.3653 14.8374 22.381 14.4689 22.381 11.5169C22.3786 8.56618 22.3786 8.19159 22.3109 7.03522ZM11.4927 17.0608C8.40663 17.0608 5.90659 14.5607 5.90659 11.4746C5.90659 8.38855 8.40663 5.88851 11.4927 5.88851C14.5764 5.88851 17.0788 8.38855 17.0788 11.4746C17.0788 14.5607 14.5764 17.0608 11.4927 17.0608ZM17.3012 6.98447C16.5798 6.98447 15.9986 6.40205 15.9986 5.68188C15.9986 4.96172 16.5798 4.3793 17.3012 4.3793C18.0201 4.3793 18.6025 4.96172 18.6025 5.68188C18.6025 6.40205 18.0201 6.98447 17.3012 6.98447Z" fill="#0D102D"/>
<path d="M11.4926 15.1032C13.4967 15.1032 15.1213 13.4786 15.1213 11.4746C15.1213 9.47054 13.4967 7.84595 11.4926 7.84595C9.4886 7.84595 7.86401 9.47054 7.86401 11.4746C7.86401 13.4786 9.4886 15.1032 11.4926 15.1032Z" fill="#0D102D"/>
</svg>
